HIERARCHY
ROOT hip
{
  OFFSET 0 0 0
  CHANNELS 6 Xposition Yposition Zposition Zrotation Yrotation Xrotation
  JOINT abdomen
  {
    OFFSET 0 20.6881 -0.73152
    CHANNELS 3 Zrotation Xrotation Yrotation
    JOINT chest
    {
      OFFSET 0 11.7043 -0.48768
      CHANNELS 3 Zrotation Xrotation Yrotation
      JOINT neck
      {
        OFFSET 0 22.1894 -2.19456
        CHANNELS 3 Zrotation Xrotation Yrotation
        JOINT head
        {
          OFFSET -0.24384 7.07133 1.2192
          CHANNELS 3 Zrotation Xrotation Yrotation
          JOINT leftEye
          {
            OFFSET 4.14528 8.04674 8.04672
            CHANNELS 3 Zrotation Xrotation Yrotation
            End Site
            {
              OFFSET 1 0 0
            }
          }
          JOINT rightEye
          {
            OFFSET -3.6576 8.04674 8.04672
            CHANNELS 3 Zrotation Xrotation Yrotation
            End Site
            {
              OFFSET 1 0 0
            }
          }
        }
      }
      JOINT rCollar
      {
        OFFSET -2.68224 19.2634 -4.8768
        CHANNELS 3 Zrotation Xrotation Yrotation
        JOINT rShldr
        {
          OFFSET -8.77824 -1.95073 1.46304
          CHANNELS 3 Zrotation Xrotation Yrotation
          JOINT rForeArm
          {
            OFFSET -28.1742 -1.7115 0.48768
            CHANNELS 3 Zrotation Xrotation Yrotation
            JOINT rHand
            {
              OFFSET -22.5879 0.773209 7.07136
              CHANNELS 3 Zrotation Xrotation Yrotation
              JOINT rThumb1
              {
                OFFSET -1.2192 -0.487915 3.41376
                CHANNELS 3 Zrotation Xrotation Yrotation
                JOINT rThumb2
                {
                  OFFSET -3.37035 -0.52449 3.41376
                  CHANNELS 3 Zrotation Xrotation Yrotation
                  End Site
                  {
                    OFFSET -1.78271 -1.18214 1.43049
                  }
                }
              }
              JOINT rIndex1
              {
                OFFSET -7.75947 0.938293 5.60832
                CHANNELS 3 Zrotation Xrotation Yrotation
                JOINT rIndex2
                {
                  OFFSET -2.54057 -0.884171 1.56538
                  CHANNELS 3 Zrotation Xrotation Yrotation
                  End Site
                  {
                    OFFSET -1.62519 -0.234802 1.16502
                  }
                }
              }
              JOINT rMid1
              {
                OFFSET -8.24714 1.18213 3.41376
                CHANNELS 3 Zrotation Xrotation Yrotation
                JOINT rMid2
                {
                  OFFSET -3.10165 -0.590103 1.0647
                  CHANNELS 3 Zrotation Xrotation Yrotation
                  End Site
                  {
                    OFFSET -2.48547 -0.328903 0.83742
                  }
                }
              }
              JOINT rRing1
              {
                OFFSET -8.82822 0.546677 1.51678
                CHANNELS 3 Zrotation Xrotation Yrotation
                JOINT rRing2
                {
                  OFFSET -2.60934 -0.819778 -0.0198488
                  CHANNELS 3 Zrotation Xrotation Yrotation
                  End Site
                  {
                    OFFSET -2.33842 -0.294052 0.168128
                  }
                }
              }
              JOINT rPinky1
              {
                OFFSET -8.27202 -0.0477905 -0.4584
                CHANNELS 3 Zrotation Xrotation Yrotation
                JOINT rPinky2
                {
                  OFFSET -1.82734 -0.647385 -0.700984
                  CHANNELS 3 Zrotation Xrotation Yrotation
                  End Site
                  {
                    OFFSET -1.69225 -0.51767 -0.607171
                  }
                }
              }
            }
          }
        }
      }
      JOINT lCollar
      {
        OFFSET 2.68224 19.2634 -4.8768
        CHANNELS 3 Zrotation Xrotation Yrotation
        JOINT lShldr
        {
          OFFSET 8.77824 -1.95073 1.46304
          CHANNELS 3 Zrotation Xrotation Yrotation
          JOINT lForeArm
          {
            OFFSET 28.1742 -1.7115 0.48768
            CHANNELS 3 Zrotation Xrotation Yrotation
            JOINT lHand
            {
              OFFSET 22.5879 0.773209 7.07136
              CHANNELS 3 Zrotation Xrotation Yrotation
              JOINT lThumb1
              {
                OFFSET 1.2192 -0.487915 3.41376
                CHANNELS 3 Zrotation Xrotation Yrotation
                JOINT lThumb2
                {
                  OFFSET 3.37035 -0.52449 3.41376
                  CHANNELS 3 Zrotation Xrotation Yrotation
                  End Site
                  {
                    OFFSET 1.78271 -1.18214 1.43049
                  }
                }
              }
              JOINT lIndex1
              {
                OFFSET 7.75947 0.938293 5.60832
                CHANNELS 3 Zrotation Xrotation Yrotation
                JOINT lIndex2
                {
                  OFFSET 2.54057 -0.884171 1.56538
                  CHANNELS 3 Zrotation Xrotation Yrotation
                  End Site
                  {
                    OFFSET 1.62519 -0.234802 1.16502
                  }
                }
              }
              JOINT lMid1
              {
                OFFSET 8.24714 1.18213 3.41376
                CHANNELS 3 Zrotation Xrotation Yrotation
                JOINT lMid2
                {
                  OFFSET 3.10165 -0.590103 1.0647
                  CHANNELS 3 Zrotation Xrotation Yrotation
                  End Site
                  {
                    OFFSET 2.48547 -0.328903 0.83742
                  }
                }
              }
              JOINT lRing1
              {
                OFFSET 8.82822 0.546677 1.51678
                CHANNELS 3 Zrotation Xrotation Yrotation
                JOINT lRing2
                {
                  OFFSET 2.60934 -0.819778 -0.0198488
                  CHANNELS 3 Zrotation Xrotation Yrotation
                  End Site
                  {
                    OFFSET 2.33842 -0.294052 0.168128
                  }
                }
              }
              JOINT lPinky1
              {
                OFFSET 8.27202 -0.0477905 -0.4584
                CHANNELS 3 Zrotation Xrotation Yrotation
                JOINT lPinky2
                {
                  OFFSET 1.82734 -0.647385 -0.700984
                  CHANNELS 3 Zrotation Xrotation Yrotation
                  End Site
                  {
                    OFFSET 1.69225 -0.51767 -0.607171
                  }
                }
              }
            }
          }
        }
      }
    }
  }
  JOINT rButtock
  {
    OFFSET -8.77824 4.35084 1.2192
    CHANNELS 3 Zrotation Xrotation Yrotation
    JOINT rThigh
    {
      OFFSET 0 -1.70687 -2.19456
      CHANNELS 3 Zrotation Xrotation Yrotation
      JOINT rShin
      {
        OFFSET 0 -36.8199 0.73152
        CHANNELS 3 Zrotation Xrotation Yrotation
        JOINT rFoot
        {
          OFFSET 0.73152 -45.1104 -5.12064
          CHANNELS 3 Zrotation Xrotation Yrotation
          End Site
          {
            OFFSET -1.1221 -3.69964 12.103
          }
        }
      }
    }
  }
  JOINT lButtock
  {
    OFFSET 8.77824 4.35084 1.2192
    CHANNELS 3 Zrotation Xrotation Yrotation
    JOINT lThigh
    {
      OFFSET 0 -1.70687 -2.19456
      CHANNELS 3 Zrotation Xrotation Yrotation
      JOINT lShin
      {
        OFFSET 0 -36.8199 0.73152
        CHANNELS 3 Zrotation Xrotation Yrotation
        JOINT lFoot
        {
          OFFSET -0.73152 -45.1104 -5.12064
          CHANNELS 3 Zrotation Xrotation Yrotation
          End Site
          {
            OFFSET 1.1221 -3.69964 12.103
          }
        }
      }
    }
  }
}
MOTION
Frames:	4
Frame Time:	0.00833333
232.712 84.7658 44.6908 0.0 0.0 0.0 -0.385196 -0.00168814 -0.0109958 -0.106234 -0.00256713 -0.0184049 -5.35281e-16 7.95139e-16 -4.96962e-17 -1.65861e-15 9.54166e-15 -1.47535e-16 -0.0 0.0 0.0 -0.0 0.0 0.0 -1.50418e-16 1.94126e-19 9.93923e-17 -4.79684e-15 -2.48481e-16 1.98785e-16 -1.00486e-13 3.29983e-14 1.59028e-14 -1.17575e-12 -2.18663e-14 -1.33583e-13 -2.77087e-12 2.86544e-14 -2.44903e-13 -4.7931e-12 5.40694e-14 -4.20628e-13 -2.76907e-12 2.8625e-14 -2.57625e-13 7.73091 5.47488 0.417314 -2.77225e-12 2.78299e-14 -2.35361e-13 2.90554 0.965183 0.102902 -2.76515e-12 2.82274e-14 -2.43312e-13 10.2786 0.731801 0.0259123 -2.77324e-12 3.1408e-14 -2.35361e-13 2.22167 -0.733487 -0.20892 -3.46561e-16 7.76503e-19 -1.98785e-16 -7.13742e-15 -4.5969e-16 -1.39149e-15 -1.03964e-13 -3.22031e-14 -3.18055e-14 -1.16789e-12 2.85008e-14 -7.95139e-14 -2.75557e-12 1.82404e-15 -2.44903e-13 -4.75215e-12 6.36111e-15 -4.21424e-13 -2.75595e-12 -1.59028e-15 -2.38542e-13 -7.73091 5.47488 -0.417314 -2.75396e-12 1.49089e-15 -2.48083e-13 -2.90554 0.965183 -0.102902 -2.76185e-12 1.59028e-15 -2.46493e-13 -10.2786 0.731801 -0.0259123 -2.7486e-12 5.56597e-15 -2.54444e-13 -2.22167 -0.733487 0.20892 -2.03217e-16 0.0 -3.88251e-19 0.221642 -2.58356 -0.0280807 -0.00748952 -0.872629 -0.0651395 -0.513102 3.45577 0.129346 2.03217e-16 0.0 3.88251e-19 -0.807783 -4.07084 0.0653915 0.00325581 1.82139 0.0244324 0.517719 2.24911 -0.105181
229.034 83.5302 37.5837 -88.3322 -84.3541 97.2684 1.52894 -2.55151 -0.524942 0.143933 0.129013 -0.238899 -2.16691 -0.435577 -1.15958 2.83788 -2.79493 -1.39189 -0.0 0.0 0.0 -0.0 0.0 0.0 -2.29619e-14 1.35474e-12 -4.52154e-14 20.2433 4.56039 0.0297237 -3.13938 -1.2632 5.06646 0.0153195 2.74641 0.384382 7.76691e-10 2.92137e-10 -5.58139e-10 1.33667e-09 5.07444e-10 -9.70848e-10 7.76694e-10 2.92136e-10 -5.58149e-10 7.73091 5.47488 0.417314 7.7669e-10 2.92135e-10 -5.58133e-10 2.90554 0.965183 0.102902 7.76696e-10 2.92135e-10 -5.58137e-10 10.2786 0.731801 0.0259123 7.76686e-10 2.92138e-10 -5.58127e-10 2.22167 -0.733487 -0.20892 -2.30777e-14 1.35474e-12 -4.54716e-14 -22.113 3.45058 1.09409 4.13345 -1.86126 -6.47424 -0.0761151 6.12637 -0.843331 8.98555e-11 3.47825e-10 9.54716e-10 1.71691e-10 5.92887e-10 1.64657e-09 8.98545e-11 3.47822e-10 9.54722e-10 -7.73091 5.47488 -0.417314 8.98567e-11 3.47825e-10 9.54715e-10 -2.90554 0.965183 -0.102902 8.98501e-11 3.47826e-10 9.54716e-10 -10.2786 0.731801 -0.0259123 8.98607e-11 3.4783e-10 9.54709e-10 -2.22167 -0.733487 0.20892 -2.03217e-16 0.0 -3.88251e-19 1.63283 -5.03834 0.943548 -0.00702473 2.48579 -0.00389804 -0.687678 1.54959 -3.66858 2.03217e-16 0.0 3.88251e-19 1.32384 -6.30973 -1.18645 0.00452803 4.52099 -0.0221571 0.53254 0.00422605 0.845337
229.018 83.5396 37.6286 -83.5036 -84.3579 92.3562 3.50168 -5.24884 -1.07317 0.407138 0.270566 -0.472427 -4.47769 -0.889053 -2.38683 5.69774 -5.74699 -2.87646 -0.0 0.0 0.0 -0.0 0.0 0.0 -5.14571e-14 2.89316e-12 -9.33077e-14 41.643 9.38067 0.0608121 -6.21382 -2.56419 10.4263 -0.00874945 5.65437 0.794383 1.6491e-09 6.02626e-10 -1.15213e-09 2.83833e-09 1.04698e-09 -2.00442e-09 1.6491e-09 6.02625e-10 -1.15214e-09 7.73091 5.47488 0.417314 1.6491e-09 6.02624e-10 -1.15213e-09 2.90554 0.965183 0.102902 1.6491e-09 6.02624e-10 -1.15213e-09 10.2786 0.731801 0.0259123 1.64909e-09 6.02626e-10 -1.15212e-09 2.22167 -0.733487 -0.20892 -5.14857e-14 2.89316e-12 -9.35189e-14 -45.6303 7.10095 2.26306 8.05001 -3.75044 -13.342 0.0438774 12.5951 -1.76706 2.05767e-10 7.32393e-10 2.02077e-09 3.90302e-10 1.24821e-09 3.48491e-09 2.05766e-10 7.32389e-10 2.02077e-09 -7.73091 5.47488 -0.417314 2.05768e-10 7.32392e-10 2.02077e-09 -2.90554 0.965183 -0.102902 2.05762e-10 7.32395e-10 2.02077e-09 -10.2786 0.731801 -0.0259123 2.0577e-10 7.32398e-10 2.02076e-09 -2.22167 -0.733487 0.20892 -2.03217e-16 0.0 -3.88251e-19 3.21625 -7.62607 1.98014 -0.0144864 6.03444 0.0611687 -1.14671 -0.455382 -7.68618 2.03217e-16 0.0 3.88251e-19 3.47017 -8.6692 -2.52375 0.0107714 7.37456 -0.0717653 0.628773 -2.36681 1.84645
229.023 83.5402 37.6269 -83.6697 -84.3553 92.5528 5.21895 -7.64866 -1.5652 0.647304 0.392148 -0.6799 -6.55358 -1.30459 -3.47954 8.10293 -8.36488 -4.21563 -0.0 0.0 0.0 -0.0 0.0 0.0 -6.85848e-14 4.06423e-12 -1.35845e-13 60.7152 13.6812 0.0914846 -8.75553 -3.67125 15.2277 -0.0655642 8.23773 1.16383 2.33562e-09 8.76353e-10 -1.67393e-09 4.01959e-09 1.52223e-09 -2.9117e-09 2.33562e-09 8.7635e-10 -1.67393e-09 7.73091 5.47488 0.417314 2.33561e-09 8.7635e-10 -1.67393e-09 2.90554 0.965183 0.102902 2.33562e-09 8.76349e-10 -1.67392e-09 10.2786 0.731801 0.0259123 2.3356e-09 8.76351e-10 -1.67391e-09 2.22167 -0.733487 -0.20892 -6.85399e-14 4.06423e-12 -1.36017e-13 -66.7396 10.3365 3.33043 11.1608 -5.29918 -19.4991 0.33719 18.3627 -2.6506 2.75078e-10 1.04347e-09 2.86464e-09 5.24576e-10 1.77865e-09 4.94054e-09 2.75075e-10 1.04347e-09 2.86464e-09 -7.73091 5.47488 -0.417314 2.75078e-10 1.04347e-09 2.86464e-09 -2.90554 0.965183 -0.102902 2.75074e-10 1.04348e-09 2.86464e-09 -10.2786 0.731801 -0.0259123 2.75079e-10 1.04348e-09 2.86463e-09 -2.22167 -0.733487 0.20892 -2.03217e-16 0.0 -3.88251e-19 4.70831 -9.93729 2.91965 -0.0277979 9.20261 0.120127 -1.79064 -2.20984 -11.2684 2.03217e-16 0.0 3.88251e-19 5.28894 -10.7691 -3.7341 0.0204106 9.92018 -0.116852 0.785974 -4.48039 2.75464
